<?xml version="1.0" encoding="UTF-8"?>
<svg id="_レイヤー_2" data-name="レイヤー 2" xmlns="http://www.w3.org/2000/svg" viewBox="0 0 42.52 42.52">
  <defs>
    <style>
      .cls-1 {
        fill: #231815;
      }
    </style>
  </defs>
  <g id="_レイヤー_1-2" data-name="レイヤー 1">
    <polygon class="cls-1" points="21.26 0 24.34 6.92 29.95 1.86 29.97 9.44 37.15 7.11 34.09 14.05 41.59 14.85 35.99 19.94 42.52 23.74 35.35 26.1 39.77 32.24 32.27 31.46 33.82 38.88 27.29 35.1 25.7 42.52 21.26 36.39 16.82 42.52 15.23 35.1 8.69 38.88 10.25 31.46 2.75 32.24 7.17 26.1 0 23.74 6.53 19.94 .93 14.85 8.43 14.05 5.37 7.11 12.55 9.44 12.57 1.86 18.18 6.92 21.26 0"/>
  </g>
</svg>